<?xml version="1.0" standalone="no"?>
<!DOCTYPE svg PUBLIC "-//W3C//DTD SVG 20010904//EN"
 "http://www.w3.org/TR/2001/REC-SVG-20010904/DTD/svg10.dtd">
<svg version="1.0" xmlns="http://www.w3.org/2000/svg"
 width="1000.000000pt" height="1000.000000pt" viewBox="0 0 1000.000000 1000.000000"
 preserveAspectRatio="xMidYMid meet">
<metadata>
Created by potrace 1.11, written by Peter Selinger 2001-2013
</metadata>
<g transform="translate(0.000000,1000.000000) scale(0.100000,-0.100000)"
fill="#000000" stroke="none">
<path d="M1497 6883 c-2 -5 -5 -46 -6 -93 -3 -74 -7 -137 -10 -149 -1 -2 -7 1
-13 6 -7 6 -40 25 -73 43 -33 18 -88 48 -121 67 l-62 33 -41 -116 c-23 -64
-40 -118 -39 -119 2 -1 30 -10 63 -18 33 -9 95 -26 138 -38 l78 -22 -72 -66
c-40 -36 -94 -87 -121 -112 l-50 -45 91 -83 c68 -62 94 -81 104 -73 7 6 46 60
87 121 41 61 78 111 81 111 3 0 28 -65 54 -144 l47 -144 102 49 c55 27 104 53
109 58 9 9 2 22 -91 179 -33 56 -58 102 -54 103 4 0 69 0 145 -1 l138 -1 -3
116 c-2 64 -6 119 -10 121 -4 3 -47 -3 -95 -12 -116 -21 -112 -21 -160 -29
-24 -4 -43 -4 -43 -1 0 5 54 210 66 249 5 15 -5 17 -115 17 -66 0 -122 -3
-124 -7z"/>
<path d="M8475 6880 c-3 -5 -8 -22 -10 -37 -6 -40 -15 -85 -21 -105 -3 -10 -7
-29 -10 -42 -6 -36 -49 -236 -173 -816 -27 -129 -52 -246 -55 -260 -3 -14 -7
-34 -10 -45 -2 -11 -14 -64 -25 -117 -11 -53 -23 -108 -27 -122 l-6 -26 141 0
c78 0 141 3 141 6 0 4 16 86 36 183 35 164 39 178 68 202 17 15 42 37 56 49
l25 21 11 -38 c7 -21 26 -94 44 -163 17 -69 35 -136 40 -150 4 -14 13 -44 19
-67 l12 -43 150 0 c138 0 150 1 145 18 -2 9 -46 160 -96 335 -81 279 -91 320
-78 335 8 9 48 58 88 107 41 50 77 92 80 95 17 15 230 279 230 284 0 3 -67 6
-148 6 l-148 0 -30 -37 c-24 -30 -147 -182 -247 -305 -12 -14 -34 -41 -49 -60
-14 -18 -38 -46 -52 -63 l-25 -29 24 89 c14 50 41 164 60 255 20 91 42 194 51
230 8 36 17 76 19 90 6 31 22 108 41 198 l7 32 -136 0 c-78 0 -138 -4 -142
-10z"/>
<path d="M857 6853 c-10 -17 -249 -455 -345 -633 -19 -36 -42 -78 -52 -95 -16
-28 -30 -54 -126 -232 -35 -66 -61 -113 -119 -218 -15 -27 -46 -84 -68 -125
-22 -41 -57 -105 -78 -142 -65 -116 -71 -108 78 -108 l128 1 120 221 c66 122
138 256 161 297 53 100 420 773 451 831 14 25 45 82 70 127 l44 83 -130 0
c-71 0 -132 -3 -134 -7z"/>
<path d="M2267 6852 c-20 -4 -18 2 -62 -207 -19 -93 -40 -190 -46 -215 -12
-57 -99 -466 -105 -500 -3 -14 -16 -75 -29 -137 -14 -61 -26 -122 -29 -135 -2
-13 -14 -66 -25 -118 -11 -52 -22 -106 -25 -120 -2 -14 -9 -44 -14 -67 l-10
-43 143 0 c128 0 144 2 149 18 5 18 13 58 22 107 3 17 14 71 25 120 11 50 22
104 25 120 3 17 13 66 23 110 l17 80 90 1 c49 1 109 4 134 8 285 44 477 296
465 610 -8 214 -126 343 -334 362 -64 6 -389 11 -414 6z m384 -266 c46 -22 69
-63 73 -133 9 -155 -70 -293 -186 -328 -60 -17 -158 -20 -158 -4 0 6 11 58 24
117 14 59 27 118 30 132 3 14 15 73 27 131 l22 105 66 -1 c38 -1 82 -9 102
-19z"/>
<path d="M3639 6490 c-65 -24 -110 -61 -158 -130 -23 -33 -44 -60 -47 -60 -3
0 -2 28 2 63 3 34 7 76 7 92 l2 30 -108 1 c-59 1 -107 0 -107 -2 0 -1 -23
-108 -50 -236 -28 -128 -58 -267 -66 -308 -9 -41 -17 -82 -19 -90 -2 -8 -13
-59 -24 -114 -12 -54 -23 -108 -26 -120 -2 -11 -7 -32 -10 -46 -7 -31 -28
-133 -41 -195 -3 -16 -8 -38 -10 -47 -5 -17 6 -18 134 -18 l140 0 11 48 c20
86 102 475 107 511 3 19 16 65 29 102 65 193 171 276 312 245 32 -7 32 -7 47
46 49 171 64 238 53 240 -65 8 -138 4 -178 -12z"/>
<path d="M5040 6486 c-137 -45 -246 -143 -322 -292 -37 -72 -79 -183 -79 -209
0 -2 -4 -19 -9 -36 -17 -57 -25 -143 -25 -259 1 -116 13 -173 54 -240 28 -46
94 -103 150 -128 112 -51 335 -39 468 26 58 28 55 22 55 137 0 25 -1 58 -1 74
l-1 30 -56 -26 c-160 -73 -310 -71 -363 6 -26 37 -38 97 -34 165 2 33 5 61 7
63 2 2 45 6 96 8 251 13 423 102 493 255 25 55 30 78 31 150 1 136 -46 214
-160 267 -81 37 -208 41 -304 9z m185 -216 c35 -29 27 -120 -18 -184 -31 -44
-112 -76 -208 -83 -77 -5 -82 -4 -75 13 5 11 14 38 21 61 28 92 108 190 170
210 33 11 87 2 110 -17z"/>
<path d="M6215 6496 c-69 -22 -101 -43 -162 -111 -54 -58 -60 -62 -57 -37 2
15 6 52 9 84 l6 56 -110 0 c-103 0 -110 -1 -115 -22 -7 -29 -124 -580 -186
-876 -28 -135 -53 -253 -56 -262 -5 -17 6 -18 135 -18 78 0 141 2 141 4 0 2
18 89 41 192 22 104 42 200 45 214 2 14 7 36 10 50 3 14 8 35 10 46 34 180
101 358 155 410 50 48 134 50 159 4 15 -29 10 -128 -11 -225 -10 -44 -20 -91
-23 -105 -2 -14 -11 -57 -20 -95 -8 -39 -17 -82 -20 -95 -2 -14 -18 -90 -35
-170 -17 -80 -33 -155 -36 -168 -2 -12 -7 -31 -10 -42 -6 -19 -2 -20 134 -20
78 0 141 2 141 4 0 3 16 77 35 165 19 88 37 173 40 188 17 101 87 388 104 435
51 133 153 200 218 143 24 -20 27 -29 27 -86 0 -35 -4 -77 -7 -94 -39 -179
-61 -281 -72 -340 -8 -38 -27 -133 -44 -211 -17 -77 -33 -155 -36 -172 l-5
-32 138 0 138 0 52 248 c29 136 54 256 57 267 2 11 8 40 14 65 5 25 13 61 16
80 3 19 11 55 16 80 6 25 13 56 16 70 3 14 6 67 6 118 0 83 -3 99 -29 150 -22
42 -41 64 -78 87 -44 27 -57 30 -130 30 -68 0 -90 -4 -136 -27 -58 -29 -98
-61 -142 -115 l-26 -33 -18 46 c-40 106 -174 160 -299 120z"/>
<path d="M7659 6492 c-273 -73 -462 -410 -455 -807 2 -110 16 -171 55 -235 27
-45 95 -103 151 -129 48 -22 71 -26 170 -28 127 -3 198 10 293 54 47 22 57 31
58 52 1 33 -2 185 -4 187 -1 1 -24 -9 -52 -22 -120 -59 -270 -71 -331 -26 -48
33 -66 82 -67 173 0 44 2 82 5 85 3 2 45 7 94 9 92 5 106 7 189 26 75 17 185
74 234 122 26 24 57 70 74 107 25 55 30 78 31 150 1 74 -3 92 -27 142 -30 61
-91 114 -157 137 -62 21 -188 23 -261 3z m166 -222 c21 -18 28 -71 15 -119
-15 -55 -72 -113 -130 -130 -44 -13 -190 -27 -190 -19 0 17 44 129 64 162 32
53 93 111 131 123 33 11 87 2 110 -17z"/>
<path d="M3914 6416 c-9 -39 -18 -84 -20 -101 -3 -16 -7 -36 -9 -42 -3 -10 38
-13 169 -15 l174 -3 -82 -117 c-44 -64 -106 -153 -136 -197 -30 -45 -112 -163
-182 -264 -127 -181 -147 -221 -163 -325 l-7 -42 353 2 353 3 8 35 c4 19 10
45 13 58 3 12 7 34 10 50 3 15 8 39 11 54 l5 28 -189 2 -189 3 96 137 c446
638 440 628 457 759 l6 47 -330 0 -331 -1 -17 -71z"/>
<path d="M7824 5199 c-4 -6 -9 -62 -11 -123 -3 -93 -9 -179 -12 -195 -1 -2 -7
1 -13 6 -7 6 -40 25 -73 43 -33 18 -88 48 -121 66 -55 31 -62 33 -67 17 -3
-10 -22 -63 -41 -117 -20 -54 -35 -100 -34 -101 2 -1 58 -17 125 -35 68 -19
128 -37 135 -42 9 -6 -6 -25 -52 -67 -36 -32 -89 -81 -118 -108 l-54 -49 92
-84 92 -84 22 26 c11 14 50 69 86 122 36 52 68 96 71 96 3 0 27 -65 53 -144
l49 -144 76 37 c104 51 141 71 141 76 0 2 -31 57 -68 122 -38 65 -74 127 -80
138 -10 20 -8 20 135 17 l144 -4 -3 117 c-2 64 -6 119 -10 121 -4 3 -71 -7
-149 -21 -78 -14 -143 -24 -145 -22 -4 3 50 219 72 288 5 17 -32 27 -171 45
-27 3 -53 8 -57 10 -4 2 -10 -1 -14 -7z"/>
<path d="M6609 5185 c-1 -3 -2 -8 -4 -12 -1 -5 -5 -26 -10 -48 -4 -22 -10 -49
-12 -60 -2 -11 -6 -31 -9 -45 -3 -14 -9 -41 -14 -60 -8 -33 -36 -163 -46 -220
-7 -35 -62 -296 -74 -345 -8 -36 -75 -349 -86 -400 -2 -11 -18 -85 -35 -165
-31 -145 -34 -159 -45 -215 -3 -16 -8 -38 -10 -47 -5 -17 6 -18 135 -18 l139
0 6 28 c4 15 8 38 11 52 3 14 12 59 20 100 16 77 20 101 31 157 3 18 16 39 28
47 11 8 36 29 55 46 19 16 35 29 36 28 2 -2 24 -82 50 -178 25 -96 53 -199 61
-227 l15 -53 150 0 c82 0 149 1 149 3 0 3 -29 105 -129 452 -34 116 -61 212
-61 215 0 3 10 17 23 32 12 14 51 62 87 105 36 43 69 83 75 89 5 6 46 55 90
108 44 54 92 112 107 130 15 17 28 34 28 37 0 3 -67 6 -149 7 l-150 0 -47 -62
c-27 -33 -51 -63 -54 -66 -5 -4 -71 -84 -107 -130 -208 -259 -196 -247 -177
-179 19 68 71 284 77 324 3 17 12 59 21 95 8 36 17 76 20 90 18 92 27 138 35
169 5 20 12 52 15 71 3 19 12 61 20 93 l13 57 -138 0 c-77 0 -140 -2 -140 -5z"/>
<path d="M2490 5090 c-7 -4 -103 -427 -126 -550 -4 -22 -16 -76 -19 -90 -1 -3
-5 -22 -9 -43 -9 -42 -15 -47 -155 -136 l-101 -64 27 -46 c14 -25 38 -65 53
-88 l26 -42 32 19 c34 21 57 26 48 11 -5 -8 -14 -49 -50 -225 -3 -11 -16 -74
-30 -140 -14 -65 -26 -124 -26 -132 0 -12 57 -14 349 -14 193 0 352 3 354 8 3
4 8 23 11 42 3 19 12 68 21 108 8 40 15 77 15 81 0 4 -93 7 -206 7 -113 -1
-207 1 -209 4 -2 3 3 29 10 57 8 29 16 65 19 80 5 30 22 116 30 148 3 11 13
62 24 113 11 51 21 94 23 96 2 1 77 50 166 109 l163 107 -51 77 c-64 99 -61
97 -90 75 -13 -10 -48 -33 -77 -51 l-54 -32 6 28 c10 44 16 73 32 153 9 41 17
84 20 95 2 11 15 68 27 128 l23 107 -60 0 c-34 1 -94 2 -134 3 -41 1 -78 0
-82 -3z"/>
<path d="M8951 5066 c-12 -18 -21 -36 -21 -39 0 -3 -17 -36 -38 -74 -42 -74
-69 -123 -202 -368 -48 -88 -101 -185 -117 -215 -36 -66 -253 -464 -311 -570
-22 -41 -62 -115 -90 -165 l-49 -90 121 -3 c66 -1 125 -1 131 2 7 2 90 147
185 323 96 175 182 334 193 353 11 19 35 64 55 100 19 36 74 137 122 225 48
88 107 196 130 240 24 44 72 131 107 194 34 62 63 115 63 117 0 2 -58 4 -129
4 l-129 0 -21 -34z"/>
<path d="M4787 4736 c-58 -21 -115 -65 -163 -124 l-44 -54 6 85 6 85 -111 -1
c-61 0 -111 -1 -111 -2 0 -2 -41 -195 -46 -220 -3 -11 -7 -31 -10 -45 -11 -57
-76 -362 -94 -445 -11 -49 -22 -99 -24 -110 -13 -67 -49 -240 -76 -365 -82
-382 -103 -490 -97 -496 7 -7 255 -9 262 -2 9 9 103 443 112 518 3 25 8 65 12
90 l6 45 27 -45 c33 -57 63 -85 112 -105 51 -22 147 -17 211 9 66 27 169 131
219 221 39 71 100 227 110 280 3 17 7 41 10 55 22 100 30 177 29 286 -1 168
-52 277 -154 330 -43 22 -146 27 -192 10z m7 -227 c44 -20 60 -82 53 -207 -12
-224 -97 -456 -190 -517 -58 -37 -128 -18 -153 42 -40 95 5 369 89 541 35 72
94 138 129 145 40 8 47 7 72 -4z"/>
<path d="M5628 4726 c-170 -69 -301 -290 -362 -612 -18 -92 -24 -265 -12 -324
3 -14 8 -38 12 -55 11 -56 66 -134 117 -167 38 -24 62 -32 116 -36 92 -6 154
22 239 109 l62 64 -4 -77 -4 -78 109 0 c118 0 113 -3 125 67 2 16 11 60 20 98
8 39 16 79 19 90 2 11 35 168 74 349 39 180 73 338 75 350 3 11 14 65 25 120
12 54 21 99 21 101 0 1 -51 3 -114 3 l-114 0 -28 -75 c-24 -69 -28 -74 -41
-58 -7 11 -13 24 -13 31 0 18 -61 80 -100 100 -54 28 -153 28 -222 0z m213
-226 c56 -31 67 -130 34 -335 -22 -144 -99 -315 -168 -377 -26 -23 -83 -33
-112 -20 -46 21 -60 58 -60 156 0 191 55 389 143 520 40 57 112 83 163 56z"/>
<path d="M3285 4717 c-9 -32 -49 -218 -69 -322 -2 -11 -11 -50 -20 -86 -8 -37
-17 -78 -20 -90 -3 -13 -16 -80 -31 -149 -14 -69 -29 -170 -32 -225 -4 -85 -2
-109 16 -160 25 -72 79 -126 146 -145 59 -17 160 -8 210 18 50 25 126 91 144
126 8 14 18 26 21 26 4 0 5 -36 3 -80 l-5 -81 108 3 108 3 47 220 c27 121 50
231 53 245 2 14 18 90 35 170 17 80 33 156 36 169 6 33 44 209 55 251 4 19 11
54 15 77 l6 41 -137 -1 -138 -2 -24 -110 c-43 -202 -93 -440 -98 -465 -24
-124 -74 -255 -121 -318 -30 -39 -71 -62 -115 -62 -43 0 -54 8 -71 50 -22 52
-16 92 58 450 3 14 10 48 16 75 6 28 12 59 15 70 20 97 64 308 64 310 0 1 -61
2 -135 3 -99 1 -137 -2 -140 -11z"/>
</g>
</svg>
